<svg width="192" height="192" viewBox="0 0 192 192" fill="none" xmlns="http://www.w3.org/2000/svg">
  <path d="M0 8C0 3.58173 3.58172 0 8 0H184C188.418 0 192 3.58172 192 8V190C192 191.105 191.105 192 190 192H2C0.895434 192 0 191.105 0 190V8Z" fill="#F9F8FF" />
  <path opacity="0.1" d="M93.8787 43.5355C95.0503 42.364 96.9497 42.364 98.1213 43.5355L148.464 93.8787C149.636 95.0503 149.636 96.9497 148.464 98.1213L98.1213 148.464C96.9497 149.636 95.0503 149.636 93.8787 148.464L43.5355 98.1213C42.364 96.9497 42.364 95.0503 43.5355 93.8787L93.8787 43.5355Z" fill="white" stroke="#ADADB0" stroke-width="2" />
  <path d="M81.4492 91.1777L87.0254 99.6152V91.0996C87.0254 90.5462 87.1426 90.1328 87.377 89.8594C87.6178 89.5794 87.9401 89.4395 88.3438 89.4395C88.7604 89.4395 89.0892 89.5794 89.3301 89.8594C89.571 90.1328 89.6914 90.5462 89.6914 91.0996V102.359C89.6914 103.616 89.1706 104.244 88.1289 104.244C87.8685 104.244 87.6341 104.205 87.4258 104.127C87.2174 104.055 87.0221 103.938 86.8398 103.775C86.6576 103.613 86.4883 103.424 86.332 103.209C86.1758 102.988 86.0195 102.763 85.8633 102.535L80.4238 94.1953V102.584C80.4238 103.131 80.2969 103.544 80.043 103.824C79.7891 104.104 79.4635 104.244 79.0664 104.244C78.6562 104.244 78.3275 104.104 78.0801 103.824C77.8327 103.538 77.709 103.124 77.709 102.584V91.5391C77.709 91.0703 77.7611 90.7025 77.8652 90.4355C77.9889 90.1426 78.194 89.9049 78.4805 89.7227C78.7669 89.5339 79.0762 89.4395 79.4082 89.4395C79.6686 89.4395 79.89 89.4818 80.0723 89.5664C80.2611 89.651 80.4238 89.765 80.5605 89.9082C80.7038 90.0514 80.847 90.237 80.9902 90.4648C81.14 90.6927 81.293 90.9303 81.4492 91.1777ZM101.42 91.9199H95.707V95.582H100.482C100.925 95.582 101.254 95.6829 101.469 95.8848C101.69 96.0801 101.801 96.3438 101.801 96.6758C101.801 97.0078 101.69 97.2715 101.469 97.4668C101.247 97.6621 100.919 97.7598 100.482 97.7598H95.707V102.477C95.707 103.076 95.5703 103.521 95.2969 103.814C95.0299 104.101 94.6849 104.244 94.2617 104.244C93.832 104.244 93.4805 104.098 93.207 103.805C92.9401 103.512 92.8066 103.069 92.8066 102.477V91.4609C92.8066 91.0443 92.8685 90.7057 92.9922 90.4453C93.1159 90.1784 93.3079 89.9863 93.5684 89.8691C93.8353 89.7454 94.1738 89.6836 94.584 89.6836H101.42C101.882 89.6836 102.224 89.7878 102.445 89.9961C102.673 90.1979 102.787 90.4648 102.787 90.7969C102.787 91.1354 102.673 91.4089 102.445 91.6172C102.224 91.819 101.882 91.9199 101.42 91.9199ZM114.252 92.0762H111.088V102.477C111.088 103.076 110.954 103.521 110.688 103.814C110.421 104.101 110.076 104.244 109.652 104.244C109.223 104.244 108.871 104.098 108.598 103.805C108.331 103.512 108.197 103.069 108.197 102.477V92.0762H105.033C104.538 92.0762 104.171 91.9688 103.93 91.7539C103.689 91.5326 103.568 91.2428 103.568 90.8848C103.568 90.5137 103.692 90.2207 103.939 90.0059C104.193 89.791 104.558 89.6836 105.033 89.6836H114.252C114.753 89.6836 115.124 89.7943 115.365 90.0156C115.613 90.237 115.736 90.5267 115.736 90.8848C115.736 91.2428 115.613 91.5326 115.365 91.7539C115.118 91.9688 114.747 92.0762 114.252 92.0762Z" fill="#BBB6D6" />
</svg>
