<svg width="60" height="60" viewBox="0 0 60 60" fill="none" xmlns="http://www.w3.org/2000/svg">
<path fill-rule="evenodd" clip-rule="evenodd" d="M30 4C39.3888 4 47 11.6112 47 21C47 30.2809 39.5628 37.8248 30.323 37.997L30 38C20.6112 38 13 30.3888 13 21C13 11.7191 20.4372 4.1752 29.677 4.00301L30 4ZM60 60C60 49.949 55.0572 41.0525 47.4697 35.6085L47.3069 35.8072C43.1797 40.7695 36.9588 43.9286 30 43.9286C22.9494 43.9286 16.6562 40.6856 12.5303 35.6085L12.1592 35.879C4.78206 41.3445 0 50.1138 0 60H60ZM47.5789 41.2603L47.807 41.053L48.2458 41.4749C52.1991 45.3652 54.8252 50.4276 55.6888 55.9704L55.692 56H4.307L4.39732 55.4522C5.37064 49.9401 8.09292 44.93 12.1287 41.1136L12.192 41.054L12.5093 41.3379C17.2736 45.5287 23.4427 47.9286 30 47.9286C36.5955 47.9286 42.8006 45.5009 47.5789 41.2603ZM17 21C17 13.8203 22.8203 8 30 8C37.1797 8 43 13.8203 43 21C43 28.1797 37.1797 34 30 34C22.8203 34 17 28.1797 17 21Z" fill="black"/>
</svg>
