<svg width="60" height="60" viewBox="0 0 60 60" fill="none" xmlns="http://www.w3.org/2000/svg">
<path fill-rule="evenodd" clip-rule="evenodd" d="M0 30C0 46.5685 13.4315 60 30 60C46.5685 60 60 46.5685 60 30C60 13.4315 46.5685 0 30 0C13.4315 0 0 13.4315 0 30ZM13.6721 28.1654C12.7937 27.2866 12.7737 25.8412 13.6274 24.9369C14.4543 24.061 15.7979 24.0142 16.6797 24.8111L16.7635 24.8908L27.7333 35.8655L27.7333 18.5149C27.7333 17.2262 28.7482 16.1816 30 16.1816C31.2139 16.1816 32.2049 17.1639 32.2639 18.3985L32.2667 18.5149L32.2667 35.8655L43.2365 24.8908C44.0874 24.0395 45.4317 24.0323 46.291 24.8548L46.3726 24.9369C47.1996 25.8129 47.2067 27.1968 46.4077 28.0813L46.3279 28.1654L30 44.5L13.6721 28.1654Z" fill="#979797"/>
</svg>
