<svg width="30" height="31" viewBox="0 0 30 31" fill="none" xmlns="http://www.w3.org/2000/svg">
  <path fill-rule="evenodd" clip-rule="evenodd"
    d="M3.82808 1.35824C3.00798 0.538139 1.67834 0.538139 0.858238 1.35824C0.0381392 2.17834 0.0381395 3.50798 0.858238 4.32808L12.0307 15.5005L0.858473 26.6727C0.0383743 27.4928 0.0383742 28.8225 0.858473 29.6425C1.67857 30.4626 3.00821 30.4626 3.82831 29.6425L15.0005 18.4704L26.1726 29.6424C26.9927 30.4625 28.3223 30.4625 29.1424 29.6424C29.9625 28.8223 29.9625 27.4927 29.1424 26.6726L17.9704 15.5005L29.1427 4.3282C29.9628 3.5081 29.9628 2.17846 29.1427 1.35836C28.3226 0.538262 26.9929 0.538262 26.1728 1.35836L15.0005 12.5307L3.82808 1.35824Z"
    fill="#4C2CE4" />
</svg>