<svg t="1614753925354" class="icon" viewBox="0 0 1024 1024" version="1.1" xmlns="http://www.w3.org/2000/svg" p-id="2296" width="16" height="16"><path d="M595.549 512.5l344.35-344.347c23.211-23.212 23.211-60.84 0-84.053-23.212-23.208-60.841-23.208-84.05 0L511.5 428.45 171.802 88.753c-22.932-22.935-60.116-22.935-83.048 0-22.935 22.933-22.935 60.117 0 83.05L428.45 511.5 84.101 855.849c-23.211 23.21-23.211 60.84 0 84.049 23.212 23.211 60.841 23.211 84.05 0l344.35-344.35 338.822 338.823c22.933 22.935 60.116 22.935 83.048 0 22.935-22.933 22.935-60.117 0-83.048L595.549 512.5z" p-id="2297" fill="#000"></path></svg>
