<svg width="16" height="15" viewBox="0 0 16 15" fill="none" xmlns="http://www.w3.org/2000/svg">
  <path
    d="M13.0526 4.25015C13.2852 4.25015 13.4737 4.44043 13.4737 4.67516V12.3981L14.6859 11.1749C14.8503 11.009 15.1168 11.009 15.2813 11.1749L15.8766 11.7759C16.041 11.9419 16.041 12.2109 15.8766 12.3769L13.5861 14.6889H13.5861C13.1749 15.1038 12.5085 15.1037 12.0975 14.6886C11.917 14.5064 11.8083 14.2643 11.7916 14.0072L11.7895 13.9375V4.67516C11.7895 4.44043 11.978 4.25015 12.2105 4.25015H13.0526H13.0526ZM8.84211 12.7505C9.07465 12.7505 9.26316 12.9408 9.26316 13.1755V14.0255V14.0255C9.26316 14.2602 9.07465 14.4505 8.84211 14.4505H0.421052C0.188511 14.4505 0 14.2602 0 14.0255V14.0255V13.1755C0 12.9408 0.188512 12.7505 0.421052 12.7505H8.84211ZM8.84211 6.37523C9.07465 6.37523 9.26316 6.56552 9.26316 6.80025V7.65028C9.26316 7.88501 9.07465 8.07529 8.84211 8.07529H0.421052C0.188511 8.07529 0 7.88501 0 7.65028V6.80025C0 6.56552 0.188512 6.37523 0.421052 6.37523H8.84211ZM15.5789 0C15.8115 0 16 0.190286 16 0.425015C16 0.425015 16 0.425015 16 0.425015V1.27505C16 1.50978 15.8115 1.70006 15.5789 1.70006H0.421052C0.188511 1.70006 0 1.50978 0 1.27505V0.425015V0.425015C0 0.190285 0.188512 0 0.421052 0H15.5789Z"
    fill="#333333" />
</svg>