<svg width="40" height="35" viewBox="0 0 40 35" fill="none" xmlns="http://www.w3.org/2000/svg">
  <path fill-rule="evenodd" clip-rule="evenodd"
    d="M12.1427 2.09999C12.1427 0.940199 13.0829 0 14.2427 0H37.8998C39.0596 0 39.9998 0.940199 39.9998 2.09999C39.9998 3.25979 39.0596 4.19999 37.8998 4.19999H14.2427C13.0829 4.19999 12.1427 3.25979 12.1427 2.09999ZM0 17.4999C0 16.3401 0.940199 15.3999 2.09999 15.3999H37.8999C39.0597 15.3999 39.9999 16.3401 39.9999 17.4999C39.9999 18.6597 39.0597 19.5999 37.8999 19.5999H2.09999C0.9402 19.5999 0 18.6597 0 17.4999ZM19.9572 30.7999C18.7974 30.7999 17.8572 31.7401 17.8572 32.8999C17.8572 34.0597 18.7974 34.9999 19.9572 34.9999H37.9C39.0598 34.9999 40 34.0597 40 32.8999C40 31.7401 39.0598 30.7999 37.9 30.7999H19.9572Z"
    fill="#4C2CE4" />
</svg>