<svg width="96" height="22" viewBox="0 0 96 22" fill="none" xmlns="http://www.w3.org/2000/svg">
  <path d="M7.07106 18.622H0L10.3986 0H22.8769V17.3228L27.8683 12.126V18.622H15.8059V3.0315L7.07106 18.622Z"
    fill="#4C2CE4" />
  <path
    d="M40.8243 10.4046H38.1683C38.1363 9.50865 37.7523 9.06065 37.0163 9.06065C36.5576 9.06065 36.163 9.22598 35.8323 9.55665C35.619 9.78065 35.443 10.1006 35.3043 10.5166C35.1656 10.922 34.995 11.5886 34.7923 12.5166C34.5896 13.4446 34.4883 14.1913 34.4883 14.7566C34.4883 15.1406 34.595 15.4393 34.8083 15.6526C35.0216 15.866 35.3043 15.9726 35.6563 15.9726C36.115 15.9726 36.5096 15.8073 36.8403 15.4766C37.1816 15.146 37.411 14.7033 37.5283 14.1486L37.5763 13.9086H35.9603L36.3763 11.7006H40.6323L40.3443 13.2366C40.1843 14.09 39.9763 14.81 39.7203 15.3966C39.475 15.9833 39.1283 16.5166 38.6803 16.9966C37.8483 17.8713 36.771 18.3086 35.4483 18.3086C34.243 18.3086 33.3363 17.978 32.7283 17.3166C32.1203 16.6553 31.8163 15.8766 31.8163 14.9806C31.8163 14.33 31.9176 13.5086 32.1203 12.5166C32.387 11.1513 32.627 10.1913 32.8403 9.63665C33.0536 9.08198 33.395 8.55398 33.8643 8.05265C34.6856 7.16731 35.8003 6.72465 37.2083 6.72465C38.371 6.72465 39.2616 7.06598 39.8803 7.74865C40.5096 8.43131 40.8243 9.31665 40.8243 10.4046ZM53.5801 9.60465L49.5001 18.2126H47.6121L47.0041 13.4126L44.5241 18.2126H42.5721L41.8201 9.60465H44.3001L44.4761 14.1486L46.7641 9.60465H48.5241L49.0521 14.1486L50.9241 9.60465H53.5801ZM62.2086 8.14865L60.3526 9.78065C59.9579 9.28998 59.3392 9.04465 58.4966 9.04465C57.9846 9.04465 57.5686 9.17798 57.2486 9.44465C56.9392 9.70065 56.7846 9.98331 56.7846 10.2926C56.7846 10.4846 56.8379 10.6446 56.9446 10.7726C57.0619 10.89 57.1739 10.97 57.2806 11.0126C57.3872 11.0446 57.5472 11.0926 57.7606 11.1566L58.6246 11.3806C59.6059 11.626 60.2939 11.9886 60.6886 12.4686C61.0832 12.9486 61.2806 13.61 61.2806 14.4526C61.2806 15.7433 60.8272 16.7086 59.9206 17.3486C59.0139 17.9886 57.8939 18.3086 56.5606 18.3086C55.6006 18.3086 54.8112 18.1913 54.1926 17.9566C53.5739 17.7113 53.0192 17.306 52.5286 16.7406L54.4486 15.0606C54.9712 15.658 55.7552 15.9566 56.8006 15.9566C57.3126 15.9566 57.7392 15.834 58.0806 15.5886C58.4326 15.3433 58.6086 15.0553 58.6086 14.7246C58.6086 14.4366 58.5339 14.2233 58.3846 14.0846C58.2352 13.946 57.9899 13.834 57.6486 13.7486L56.7846 13.5246C55.0139 13.066 54.1286 12.1326 54.1286 10.7246C54.1286 9.49798 54.5606 8.52731 55.4246 7.81265C56.2886 7.08731 57.4139 6.72465 58.8006 6.72465C60.3366 6.72465 61.4726 7.19931 62.2086 8.14865ZM69.4917 10.6606L67.6037 12.3246C67.3157 11.9513 67.0117 11.7646 66.6917 11.7646C66.361 11.7646 66.073 11.8926 65.8277 12.1486C65.465 12.5326 65.209 13.1193 65.0597 13.9086C64.985 14.3033 64.9477 14.6393 64.9477 14.9166C64.9477 15.674 65.2357 16.0526 65.8117 16.0526C66.217 16.0526 66.6117 15.8606 66.9957 15.4766L68.3717 17.2846C67.6037 17.9673 66.6597 18.3086 65.5397 18.3086C65.0277 18.3086 64.5477 18.2126 64.0997 18.0206C63.6517 17.8286 63.2623 17.4926 62.9317 17.0126C62.601 16.5326 62.4357 15.946 62.4357 15.2526C62.4357 14.8153 62.4783 14.3673 62.5637 13.9086C63.097 10.9753 64.553 9.50865 66.9317 9.50865C68.009 9.50865 68.8623 9.89265 69.4917 10.6606ZM77.0438 11.9886C77.0438 12.202 77.0118 12.4686 76.9478 12.7886L75.8598 18.2126H73.4598L73.6038 17.5086C73.0811 18.0313 72.4571 18.2926 71.7318 18.2926C70.9851 18.2926 70.3985 18.058 69.9718 17.5886C69.5451 17.1193 69.3318 16.57 69.3318 15.9406C69.3318 15.0553 69.5878 14.3673 70.0998 13.8766C70.6865 13.3006 71.5238 13.0126 72.6118 13.0126H74.4038L74.4678 12.7086C74.4998 12.5806 74.5158 12.458 74.5158 12.3406C74.5158 11.8393 74.1745 11.5886 73.4918 11.5886C72.8198 11.5886 72.2865 11.818 71.8918 12.2766L70.6438 10.6126C71.4225 9.87665 72.5051 9.50865 73.8918 9.50865C74.7665 9.50865 75.5078 9.71131 76.1158 10.1166C76.7345 10.522 77.0438 11.146 77.0438 11.9886ZM74.0678 14.6766H72.8518C72.5105 14.6766 72.2438 14.7726 72.0518 14.9646C71.8705 15.1566 71.7798 15.386 71.7798 15.6526C71.7798 15.834 71.8438 15.9886 71.9718 16.1166C72.1105 16.234 72.2971 16.2926 72.5318 16.2926C72.9478 16.2926 73.3051 16.1433 73.6038 15.8446C73.8065 15.642 73.9451 15.3326 74.0198 14.9166L74.0678 14.6766ZM85.7749 11.8766C85.7749 12.1966 85.7376 12.5273 85.6629 12.8686L84.5909 18.2126H82.0949L83.1349 13.0126C83.1669 12.874 83.1829 12.73 83.1829 12.5806C83.1829 12.314 83.1083 12.1113 82.9589 11.9726C82.8096 11.834 82.6443 11.7646 82.4629 11.7646C81.7483 11.7646 81.3056 12.1806 81.1349 13.0126L80.0949 18.2126H77.5989L79.3109 9.60465H81.6949L81.5509 10.3566C82.1163 9.79131 82.8203 9.50865 83.6629 9.50865C84.1856 9.50865 84.6656 9.70065 85.1029 10.0846C85.5509 10.4686 85.7749 11.066 85.7749 11.8766Z"
    fill="#4C2CE4" />
  <path
    d="M92.3116 12.871L89.4076 18.567H88.3756L87.7276 12.871H89.0396L89.3436 16.143L90.8956 12.871H92.3116ZM95.8339 14.263C95.8339 14.3963 95.8206 14.5297 95.7939 14.663L95.3619 16.839C95.2393 17.4577 94.9966 17.9083 94.6339 18.191C94.2766 18.4737 93.8606 18.615 93.3859 18.615C92.9059 18.615 92.5299 18.4763 92.2579 18.199C91.9913 17.9217 91.8579 17.5803 91.8579 17.175C91.8579 17.0417 91.8713 16.9083 91.8979 16.775L92.3299 14.599C92.4526 13.9803 92.6926 13.5297 93.0499 13.247C93.4126 12.9643 93.8313 12.823 94.3059 12.823C94.7859 12.823 95.1593 12.9617 95.4259 13.239C95.6979 13.5163 95.8339 13.8577 95.8339 14.263ZM94.5939 14.367C94.5939 14.223 94.5539 14.119 94.4739 14.055C94.3939 13.9857 94.2979 13.951 94.1859 13.951C93.8606 13.951 93.6579 14.1537 93.5779 14.559L93.1299 16.823C93.1086 16.919 93.0979 17.0017 93.0979 17.071C93.0979 17.215 93.1379 17.3217 93.2179 17.391C93.2979 17.455 93.3939 17.487 93.5059 17.487C93.8313 17.487 94.0339 17.2843 94.1139 16.879L94.5619 14.615C94.5833 14.519 94.5939 14.4363 94.5939 14.367Z"
    fill="#4C2CE4" />
</svg>