<?xml version="1.0" standalone="no"?><!DOCTYPE svg PUBLIC "-//W3C//DTD SVG 1.1//EN" "http://www.w3.org/Graphics/SVG/1.1/DTD/svg11.dtd"><svg class="icon" width="16px" height="16.00px" viewBox="0 0 1024 1024" version="1.1" xmlns="http://www.w3.org/2000/svg"><path fill="#666666" d="M245.333333 128a32 32 0 0 0-31.701333 27.648L213.333333 160v704a32 32 0 0 0 63.701334 4.352l0.298666-4.352V160A32 32 0 0 0 245.333333 128z m555.946667 9.386667a32 32 0 0 0-41.642667-3.114667l-3.584 3.114667-352 352a32 32 0 0 0-3.114666 41.642666l3.114666 3.584 352 352a32 32 0 0 0 48.341334-41.642666l-3.114667-3.584L471.893333 512l329.386667-329.386667a32 32 0 0 0 0-45.226666z" /></svg>
