<svg width="20" height="20" viewBox="0 0 20 20" fill="none" xmlns="http://www.w3.org/2000/svg">
  <path opacity="0.8" fill-rule="evenodd" clip-rule="evenodd"
    d="M2 9.49989C2 5.3575 5.35791 1.99951 9.5 1.99951C13.6421 1.99951 17 5.3575 17 9.49989C17 11.5129 16.207 13.3407 14.9164 14.6879C14.8732 14.719 14.8318 14.7541 14.7929 14.793C14.7539 14.832 14.7189 14.8733 14.6877 14.9166C13.3406 16.2073 11.5129 17.0003 9.5 17.0003C5.35791 17.0003 2 13.6423 2 9.49989ZM15.4734 16.8877C13.8415 18.2089 11.7632 19.0003 9.5 19.0003C4.25325 19.0003 0 14.7468 0 9.49989C0 4.25302 4.25325 -0.000488281 9.5 -0.000488281C14.7467 -0.000488281 19 4.25302 19 9.49989C19 11.7631 18.2086 13.8415 16.8875 15.4734L19.7072 18.2931C20.0978 18.6836 20.0978 19.3168 19.7073 19.7073C19.3167 20.0978 18.6836 20.0978 18.293 19.7073L15.4734 16.8877Z"
    fill="#999999" />
</svg>