<svg width="60" height="60" viewBox="0 0 60 60" fill="none" xmlns="http://www.w3.org/2000/svg">
<path d="M34.1007 25.8993H25.8993V34.1007H34.1007V25.8993Z" fill="black"/>
<path fill-rule="evenodd" clip-rule="evenodd" d="M16.5108 10.7914C18.7649 10.7914 20.6962 9.40914 21.5033 7.44604H24.6043C24.7235 7.44604 24.8201 7.54267 24.8201 7.66187V15.7554H17.9137C16.7217 15.7554 15.7554 16.7217 15.7554 17.9137V24.568H7.66187C7.54267 24.568 7.44604 24.4732 7.44604 24.3562V21.3122C9.40914 20.5199 10.7914 18.6242 10.7914 16.4116C10.7914 13.4865 8.37564 11.1152 5.39568 11.1152C2.41573 11.1152 0 13.4865 0 16.4116C0 18.7044 1.48429 20.657 3.56115 21.394V24.3562C3.56115 26.5792 5.39711 28.3814 7.66187 28.3814H15.7554V31.295H7.66187C5.39711 31.295 3.56115 33.131 3.56115 35.3957V38.4135C1.48429 39.1642 0 41.1534 0 43.4893C0 46.4692 2.41573 48.8849 5.39568 48.8849C8.37564 48.8849 10.7914 46.4692 10.7914 43.4893C10.7914 41.2352 9.40914 39.3039 7.44604 38.4968V35.3957C7.44604 35.2765 7.54267 35.1799 7.66187 35.1799H15.7554V42.0863C15.7554 43.2783 16.7217 44.2446 17.9137 44.2446H24.8201V52.3381C24.8201 52.4573 24.7235 52.554 24.6043 52.554H21.5033C20.6962 50.5909 18.7649 49.2086 16.5108 49.2086C13.5308 49.2086 11.1151 51.6244 11.1151 54.6043C11.1151 57.5843 13.5308 60 16.5108 60C18.8466 60 20.8358 58.5157 21.5866 56.4388H24.6043C26.8691 56.4388 28.705 54.6029 28.705 52.3381V44.2446H31.6186V52.3381C31.6186 54.6029 33.4207 56.4388 35.6438 56.4388H38.6061C39.3431 58.5157 41.2957 60 43.5885 60C46.5136 60 48.8849 57.5843 48.8849 54.6043C48.8849 51.6244 46.5136 49.2086 43.5885 49.2086C41.3759 49.2086 39.4802 50.5909 38.6879 52.554H35.6438C35.5268 52.554 35.4319 52.4573 35.4319 52.3381V44.2446H42.0863C43.2783 44.2446 44.2446 43.2783 44.2446 42.0863V35.1799H52.3381C52.4573 35.1799 52.554 35.2765 52.554 35.3957V38.4968C50.5909 39.3039 49.2086 41.2352 49.2086 43.4893C49.2086 46.4692 51.6244 48.8849 54.6043 48.8849C57.5843 48.8849 60 46.4692 60 43.4893C60 41.1534 58.5157 39.1642 56.4388 38.4135V35.3957C56.4388 33.131 54.6029 31.295 52.3381 31.295H44.2446V28.3816H52.3381C54.6029 28.3816 56.4388 26.5794 56.4388 24.3563V21.394C58.5157 20.657 60 18.7044 60 16.4116C60 13.4865 57.5843 11.1152 54.6043 11.1152C51.6244 11.1152 49.2086 13.4865 49.2086 16.4116C49.2086 18.6242 50.5909 20.5199 52.554 21.3122V24.3563C52.554 24.4733 52.4573 24.5682 52.3381 24.5682H44.2446V17.9137C44.2446 16.7217 43.2783 15.7554 42.0863 15.7554H35.4321V7.66187C35.4321 7.54267 35.5269 7.44604 35.6439 7.44604H38.6879C39.4802 9.40914 41.3759 10.7914 43.5885 10.7914C46.5136 10.7914 48.8849 8.37564 48.8849 5.39568C48.8849 2.41573 46.5136 0 43.5885 0C41.2957 0 39.3431 1.48429 38.6061 3.56115H35.6439C33.4209 3.56115 31.6187 5.39711 31.6187 7.66187V15.7554H28.705V7.66187C28.705 5.39711 26.8691 3.56115 24.6043 3.56115H21.5866C20.8358 1.48429 18.8466 0 16.5108 0C13.5308 0 11.1151 2.41573 11.1151 5.39568C11.1151 8.37564 13.5308 10.7914 16.5108 10.7914ZM16.5108 6.90647C17.3452 6.90647 18.0216 6.23007 18.0216 5.39568C18.0216 4.5613 17.3452 3.88489 16.5108 3.88489C15.6764 3.88489 15 4.5613 15 5.39568C15 6.23007 15.6764 6.90647 16.5108 6.90647ZM16.5108 53.0935C17.3452 53.0935 18.0216 53.7699 18.0216 54.6043C18.0216 55.4387 17.3452 56.1151 16.5108 56.1151C15.6764 56.1151 15 55.4387 15 54.6043C15 53.7699 15.6764 53.0935 16.5108 53.0935ZM42.1055 5.39568C42.1055 6.23007 42.7695 6.90647 43.5885 6.90647C44.4075 6.90647 45.0715 6.23007 45.0715 5.39568C45.0715 4.5613 44.4075 3.88489 43.5885 3.88489C42.7695 3.88489 42.1055 4.5613 42.1055 5.39568ZM43.5885 53.0935C42.7695 53.0935 42.1055 53.7699 42.1055 54.6043C42.1055 55.4387 42.7695 56.1151 43.5885 56.1151C44.4075 56.1151 45.0715 55.4387 45.0715 54.6043C45.0715 53.7699 44.4075 53.0935 43.5885 53.0935ZM5.39568 41.9785C6.23007 41.9785 6.90647 42.6549 6.90647 43.4893C6.90647 44.3236 6.23007 45 5.39568 45C4.5613 45 3.88489 44.3236 3.88489 43.4893C3.88489 42.6549 4.5613 41.9785 5.39568 41.9785ZM53.0935 43.4893C53.0935 42.6549 53.7699 41.9785 54.6043 41.9785C55.4387 41.9785 56.1151 42.6549 56.1151 43.4893C56.1151 44.3236 55.4387 45 54.6043 45C53.7699 45 53.0935 44.3236 53.0935 43.4893ZM5.39568 17.8946C6.23007 17.8946 6.90647 17.2306 6.90647 16.4116C6.90647 15.5926 6.23007 14.9286 5.39568 14.9286C4.5613 14.9286 3.88489 15.5926 3.88489 16.4116C3.88489 17.2306 4.5613 17.8946 5.39568 17.8946ZM53.0935 16.4116C53.0935 17.2306 53.7699 17.8946 54.6043 17.8946C55.4387 17.8946 56.1151 17.2306 56.1151 16.4116C56.1151 15.5926 55.4387 14.9286 54.6043 14.9286C53.7699 14.9286 53.0935 15.5926 53.0935 16.4116ZM20.7194 20.7194V39.2806H39.2806V20.7194H20.7194Z" fill="black"/>
</svg>
