<svg width="60" height="60" viewBox="0 0 60 60" fill="none" xmlns="http://www.w3.org/2000/svg">
<path fill-rule="evenodd" clip-rule="evenodd" d="M15.6946 15.0262L7.1747 10.1377L15.7015 5.21478L24.1611 10.0989L15.6946 15.0262ZM17.961 28.7495V18.9324L26.4573 13.9879V23.8442L17.961 28.7495ZM13.4449 18.9421V28.7512L4.94582 23.8442V14.0656L13.4449 18.9421ZM15.7015 0L30.9734 8.8172V26.4516L15.7015 35.2688L0.429688 26.4516V8.8172L15.7015 0ZM44.3 39.7576L35.779 34.8685L44.305 29.9459L52.7658 34.8307L44.3 39.7576ZM46.5661 53.4798V43.664L55.0607 38.7204V48.5754L46.5661 53.4798ZM42.05 43.6733V53.4833L33.5493 48.5754V38.7959L42.05 43.6733ZM44.305 24.7312L59.5769 33.5484V51.1828L44.305 60L29.0332 51.1828V33.5484L44.305 24.7312ZM4.41205 36.6667H8.92818V47.6344H23.4443V52.1505H4.41205V36.6667ZM50.8637 22.7957H55.3798V7.31182L36.3475 7.31182V11.828L50.8637 11.828L50.8637 22.7957Z" fill="black"/>
</svg>
