<svg width="60" height="60" viewBox="0 0 60 60" fill="none" xmlns="http://www.w3.org/2000/svg">
<path fill-rule="evenodd" clip-rule="evenodd" d="M53.5659 48.0015C55.1271 44.6637 56 40.9382 56 37.0005C56 22.6411 44.3594 11.0005 30 11.0005C15.6406 11.0005 4 22.6411 4 37.0005C4 40.9382 4.87286 44.6637 6.43411 48.0015H53.5659ZM55.986 52.0015C58.5389 47.5886 60 42.4652 60 37.0005C60 20.4319 46.5685 7.00049 30 7.00049C13.4315 7.00049 0 20.4319 0 37.0005C0 42.4652 1.46113 47.5886 4.01403 52.0015H55.986Z" fill="black"/>
<path fill-rule="evenodd" clip-rule="evenodd" d="M30 19.001C31.6569 19.001 33 17.6578 33 16.001C33 14.3441 31.6569 13.001 30 13.001C28.3431 13.001 27 14.3441 27 16.001C27 17.6578 28.3431 19.001 30 19.001ZM47 27.0005C48.6569 27.0005 50 25.6573 50 24.0005C50 22.3436 48.6569 21.0005 47 21.0005C45.3431 21.0005 44 22.3436 44 24.0005C44 25.6573 45.3431 27.0005 47 27.0005ZM40.0516 22.3106L29.4148 39.0291C26.3757 39.3233 24 41.8847 24 45.001C24 48.3147 26.6863 51.001 30 51.001C33.3137 51.001 36 48.3147 36 45.001C36 43.9364 35.7227 42.9366 35.2365 42.0698L41.851 23.1837L40.0516 22.3106ZM10 45.001C11.6569 45.001 13 43.6578 13 42.001C13 40.3441 11.6569 39.001 10 39.001C8.34315 39.001 7 40.3441 7 42.001C7 43.6578 8.34315 45.001 10 45.001ZM53 42.001C53 43.6578 51.6569 45.001 50 45.001C48.3431 45.001 47 43.6578 47 42.001C47 40.3441 48.3431 39.001 50 39.001C51.6569 39.001 53 40.3441 53 42.001ZM16 24.0005C16 25.6573 14.6569 27.0005 13 27.0005C11.3431 27.0005 10 25.6573 10 24.0005C10 22.3436 11.3431 21.0005 13 21.0005C14.6569 21.0005 16 22.3436 16 24.0005Z" fill="black"/>
</svg>
