<svg width="60" height="60" viewBox="0 0 60 60" fill="none" xmlns="http://www.w3.org/2000/svg">
<path fill-rule="evenodd" clip-rule="evenodd" d="M30 0C46.5685 0 60 13.4315 60 30C60 46.5685 46.5685 60 30 60C13.4315 60 0 46.5685 0 30C0 13.4315 13.4315 0 30 0ZM30 4C15.6406 4 4 15.6406 4 30C4 44.3594 15.6406 56 30 56C44.3594 56 56 44.3594 56 30C56 15.6406 44.3594 4 30 4ZM21.9812 18L30 26.0188L38.0188 18L42 21.9812L33.9812 30L42 38.0188L38.0188 42L30 33.9812L21.9812 42L18 38.0188L26.0188 30L18 21.9812L21.9812 18Z" fill="#D50000"/>
</svg>
