<svg width="60" height="60" viewBox="0 0 60 60" fill="none" xmlns="http://www.w3.org/2000/svg">
<path fill-rule="evenodd" clip-rule="evenodd" d="M41.8667 38L60 56.1333L56.1333 60L38 41.8667C33.8667 45.1333 28.8 46.9333 23.4667 46.9333C17.2 46.9333 11.2667 44.4667 6.86667 40.0667C2.46667 35.6 0 29.7333 0 23.4667C0 17.2 2.46667 11.2667 6.86667 6.86667C11.3333 2.46667 17.2 0 23.4667 0C29.7333 0 35.6 2.46667 40.0667 6.86667C44.4667 11.3333 46.9333 17.2 46.9333 23.4667C46.9333 28.8 45.1333 33.8667 41.8667 38ZM23.4667 5.46667C18.6667 5.46667 14.1333 7.33333 10.7333 10.7333C3.73333 17.7333 3.73333 29.2 10.7333 36.2C14.1333 39.6 18.6667 41.4667 23.4667 41.4667C28.2667 41.4667 32.8 39.6 36.2 36.2C43.2 29.2 43.2 17.7333 36.2 10.7333C32.8 7.33333 28.2667 5.46667 23.4667 5.46667Z" fill="black"/>
</svg>
