<svg width="18" height="18" viewBox="0 0 18 18" fill="none" xmlns="http://www.w3.org/2000/svg">
<path fill-rule="evenodd" clip-rule="evenodd" d="M13.2001 9.0002C13.2001 12.4796 10.3795 15.3002 6.9001 15.3002C3.4207 15.3002 0.600098 12.4796 0.600098 9.0002C0.600098 5.5208 3.4207 2.7002 6.9001 2.7002C10.3795 2.7002 13.2001 5.5208 13.2001 9.0002ZM8.8599 5.20821C8.3522 4.72729 7.68829 4.5002 6.85515 4.5002C5.91786 4.5002 5.18886 4.79409 4.66815 5.38187C4.14744 5.94294 3.9001 6.69103 3.9001 7.62614H5.05148C5.05148 6.97156 5.26893 6.60123 5.55533 6.22719C5.86775 5.78635 6.59243 5.68406 6.91591 5.68406C7.18032 5.68406 7.74036 5.70678 8.03977 6.02739C8.32616 6.32128 8.46328 6.6142 8.46328 7.14855C8.46328 7.50324 8.30614 7.69316 8.10491 7.93638C8.06228 7.9879 8.01767 8.04182 7.97216 8.10019C7.91966 8.17204 7.78943 8.30132 7.64643 8.44328C7.57671 8.51249 7.50396 8.58471 7.4357 8.65476C6.7501 9.34218 6.57975 9.68469 6.34792 10.1534C6.1917 10.4874 6.17336 10.9521 6.17336 11.3929V11.7002H7.31055V11.3929C7.31055 11.1358 7.31616 10.8564 7.52932 10.3955C7.54492 10.3667 7.55999 10.3382 7.57493 10.31L7.57502 10.3099L7.57514 10.3096C7.68488 10.1024 7.78784 9.90796 8.03977 9.68469C8.61256 9.1637 8.96404 8.81506 9.09422 8.65476C9.41966 8.21392 9.6001 7.74969 9.6001 7.14855C9.6001 6.34703 9.34156 5.6624 8.8599 5.20821ZM7.0315 12.4716C6.91249 12.3506 6.76373 12.3002 6.59514 12.3002C6.42654 12.3002 6.2877 12.3506 6.16869 12.4716C6.04968 12.5825 6.0001 12.7237 6.0001 12.8952C6.0001 13.0666 6.04968 13.2078 6.16869 13.3288C6.2877 13.4397 6.42654 13.5002 6.59514 13.5002C6.76373 13.5002 6.90258 13.4397 7.02159 13.3288C7.14059 13.2178 7.2001 13.0767 7.2001 12.8952C7.2001 12.7237 7.14059 12.5825 7.0315 12.4716ZM14.1001 9.0002C14.1001 11.2896 13.0316 13.3294 11.3661 14.6481C11.6225 14.6825 11.8842 14.7002 12.1501 14.7002C15.381 14.7002 18.0001 12.0811 18.0001 8.85019C18.0001 5.61933 15.381 3.0002 12.1501 3.0002C11.7692 3.0002 11.3969 3.03659 11.0363 3.10609C12.8892 4.40879 14.1001 6.56309 14.1001 9.0002Z" fill="black"/>
</svg>
