<svg width="96" height="96" viewBox="0 0 96 96" fill="none" xmlns="http://www.w3.org/2000/svg">
  <circle opacity="0.8" cx="44" cy="44" r="44" fill="currentColor" />
  <circle cx="52" cy="52" r="44" fill="#D1DEFF" />
  <mask id="mask0_1106_10802" style="mask-type:alpha" maskUnits="userSpaceOnUse" x="8" y="8" width="88" height="88">
    <circle cx="52" cy="52" r="44" fill="white" />
  </mask>
  <g mask="url(#mask0_1106_10802)">
    <g opacity="0.5" filter="url(#filter0_f_1106_10802)">
      <circle cx="35" cy="32" r="53" fill="currentColor" />
    </g>
  </g>
  <g filter="url(#filter1_d_1106_10802)">
    <path
      d="M42.6094 54.8906V57.8906H26.2031L26.0781 55.625L35.8906 40.25H38.9062L35.6406 45.8438L30 54.8906H42.6094ZM39.7656 40.25V63H36V40.25H39.7656ZM59.9531 49.7188V53.4375C59.9531 55.2188 59.776 56.7396 59.4219 58C59.0781 59.25 58.5781 60.2656 57.9219 61.0469C57.2656 61.8281 56.4792 62.401 55.5625 62.7656C54.6562 63.1302 53.6406 63.3125 52.5156 63.3125C51.6198 63.3125 50.7865 63.1979 50.0156 62.9688C49.2552 62.7396 48.5677 62.3802 47.9531 61.8906C47.3385 61.401 46.8125 60.7708 46.375 60C45.9479 59.2188 45.6146 58.2865 45.375 57.2031C45.1458 56.1198 45.0312 54.8646 45.0312 53.4375V49.7188C45.0312 47.9271 45.2083 46.4167 45.5625 45.1875C45.9167 43.9479 46.4219 42.9427 47.0781 42.1719C47.7344 41.3906 48.5156 40.8229 49.4219 40.4688C50.3385 40.1146 51.3594 39.9375 52.4844 39.9375C53.3906 39.9375 54.224 40.0521 54.9844 40.2812C55.7552 40.5 56.4427 40.849 57.0469 41.3281C57.6615 41.8073 58.1823 42.4323 58.6094 43.2031C59.0469 43.9635 59.3802 44.8854 59.6094 45.9688C59.8385 47.0417 59.9531 48.2917 59.9531 49.7188ZM56.1875 53.9688V49.1562C56.1875 48.25 56.1354 47.4531 56.0312 46.7656C55.9271 46.0677 55.7708 45.4792 55.5625 45C55.3646 44.5104 55.1146 44.1146 54.8125 43.8125C54.5104 43.5 54.1667 43.276 53.7812 43.1406C53.3958 42.9948 52.9635 42.9219 52.4844 42.9219C51.901 42.9219 51.3802 43.0365 50.9219 43.2656C50.4635 43.4844 50.0781 43.8385 49.7656 44.3281C49.4531 44.8177 49.2135 45.4635 49.0469 46.2656C48.8906 47.0573 48.8125 48.0208 48.8125 49.1562V53.9688C48.8125 54.8854 48.8646 55.6927 48.9688 56.3906C49.0729 57.0885 49.2292 57.6875 49.4375 58.1875C49.6458 58.6771 49.8958 59.0833 50.1875 59.4062C50.4896 59.7188 50.8333 59.9479 51.2188 60.0938C51.6146 60.2396 52.0469 60.3125 52.5156 60.3125C53.1094 60.3125 53.6354 60.1979 54.0938 59.9688C54.5521 59.7396 54.9375 59.375 55.25 58.875C55.5625 58.3646 55.7969 57.7031 55.9531 56.8906C56.1094 56.0781 56.1875 55.1042 56.1875 53.9688ZM78.9844 54.8906V57.8906H62.5781L62.4531 55.625L72.2656 40.25H75.2812L72.0156 45.8438L66.375 54.8906H78.9844ZM76.1406 40.25V63H72.375V40.25H76.1406Z"
      fill="white" />
  </g>
  <defs>
    <filter id="filter0_f_1106_10802" x="-41.2108" y="-44.2108" width="152.422" height="152.422"
      filterUnits="userSpaceOnUse" color-interpolation-filters="sRGB">
      <feFlood flood-opacity="0" result="BackgroundImageFix" />
      <feBlend mode="normal" in="SourceGraphic" in2="BackgroundImageFix" result="shape" />
      <feGaussianBlur stdDeviation="11.6054" result="effect1_foregroundBlur_1106_10802" />
    </filter>
    <filter id="filter1_d_1106_10802" x="22.0781" y="37.9375" width="60.9062" height="31.375"
      filterUnits="userSpaceOnUse" color-interpolation-filters="sRGB">
      <feFlood flood-opacity="0" result="BackgroundImageFix" />
      <feColorMatrix in="SourceAlpha" type="matrix" values="0 0 0 0 0 0 0 0 0 0 0 0 0 0 0 0 0 0 127 0"
        result="hardAlpha" />
      <feOffset dy="2" />
      <feGaussianBlur stdDeviation="2" />
      <feComposite in2="hardAlpha" operator="out" />
      <feColorMatrix type="matrix" values="0 0 0 0 0 0 0 0 0 0 0 0 0 0 0 0 0 0 0.15 0" />
      <feBlend mode="normal" in2="BackgroundImageFix" result="effect1_dropShadow_1106_10802" />
      <feBlend mode="normal" in="SourceGraphic" in2="effect1_dropShadow_1106_10802" result="shape" />
    </filter>
  </defs>
</svg>