<svg width="14" height="14" viewBox="0 0 14 14" fill="none" xmlns="http://www.w3.org/2000/svg">
  <path fill-rule="evenodd" clip-rule="evenodd" d="M7.00049 1.16708C3.77879 1.16708 1.16708 3.77879 1.16708 7.00049C1.16708 10.2222 3.77879 12.8339 7.00049 12.8339C10.2222 12.8339 12.8339 10.2222 12.8339 7.00049C12.8339 3.77879 10.2222 1.16708 7.00049 1.16708ZM0.000488281 7.00049C0.000488281 3.1345 3.1345 0.000488281 7.00049 0.000488281C10.8665 0.000488281 14.0005 3.1345 14.0005 7.00049C14.0005 10.8665 10.8665 14.0005 7.00049 14.0005C3.1345 14.0005 0.000488281 10.8665 0.000488281 7.00049ZM7.00062 3.85059C7.32276 3.85059 7.58392 4.11174 7.58392 4.43389V6.41704H9.56725C9.88939 6.41704 10.1505 6.67819 10.1505 7.00033C10.1505 7.32248 9.88939 7.58363 9.56725 7.58363H7.58392V9.56725C7.58392 9.88939 7.32276 10.1505 7.00062 10.1505C6.67847 10.1505 6.41732 9.88939 6.41732 9.56725V7.58363H4.43389C4.11174 7.58363 3.85059 7.32248 3.85059 7.00033C3.85059 6.67819 4.11174 6.41704 4.43389 6.41704H6.41732V4.43389C6.41732 4.11174 6.67847 3.85059 7.00062 3.85059Z" fill="currentColor" />
</svg>
