<svg viewBox="0 0 20 20" fill="none" xmlns="http://www.w3.org/2000/svg">
  <path fill-rule="evenodd" clip-rule="evenodd"
    d="M17.2582 4.74265C17.6683 4.3326 17.6683 3.66778 17.2582 3.25773C16.8482 2.84768 16.1834 2.84768 15.7733 3.25773L10.0154 9.01564L4.74236 3.7426C4.33231 3.33255 3.66749 3.33255 3.25744 3.7426C2.84739 4.15265 2.84739 4.81747 3.25744 5.22752L8.53048 10.5006L3.11613 15.9149C2.70608 16.325 2.70608 16.9898 3.11613 17.3998C3.52618 17.8099 4.191 17.8099 4.60105 17.3998L10.0154 11.9855L15.9146 17.8847C16.3247 18.2947 16.9895 18.2947 17.3995 17.8847C17.8096 17.4746 17.8096 16.8098 17.3995 16.3998L11.5003 10.5006L17.2582 4.74265Z"
    fill="currentColor" />
</svg>