<svg width="16" height="16" viewBox="0 0 16 16" fill="none" xmlns="http://www.w3.org/2000/svg">
  <path fill-rule="evenodd" clip-rule="evenodd" d="M1.63292 1.47151C1.80635 1.29739 2.04106 1.2 2.28529 1.2H9.14235C9.38659 1.2 9.6213 1.29739 9.79473 1.47151C9.96824 1.64571 10.0661 1.88249 10.0661 2.12987V2.89481C10.0661 3.22618 10.3348 3.49481 10.6661 3.49481C10.9975 3.49481 11.2661 3.22618 11.2661 2.89481V2.12987C11.2661 1.56576 11.043 1.02428 10.6449 0.62467C10.2468 0.224979 9.70639 0 9.14235 0H2.28529C1.72125 0 1.1808 0.224979 0.782699 0.62467C0.384677 1.02428 0.161499 1.56576 0.161499 2.12987V9.01429C0.161499 9.5784 0.384677 10.1199 0.782699 10.5195C1.1808 10.9192 1.72125 11.1442 2.28529 11.1442H3.04719C3.37856 11.1442 3.64719 10.8755 3.64719 10.5442C3.64719 10.2128 3.37856 9.94417 3.04719 9.94417H2.28529C2.04106 9.94417 1.80635 9.84678 1.63292 9.67266C1.4594 9.49846 1.3615 9.26168 1.3615 9.01429V2.12987C1.3615 1.88248 1.4594 1.64571 1.63292 1.47151ZM5.93376 6.71935C5.93376 6.20354 6.34961 5.78948 6.85756 5.78948H13.7146C14.2226 5.78948 14.6384 6.20354 14.6384 6.71935V13.6038C14.6384 14.1196 14.2226 14.5336 13.7146 14.5336H6.85756C6.34961 14.5336 5.93376 14.1196 5.93376 13.6038V6.71935ZM6.85756 4.58948C5.68237 4.58948 4.73377 5.54531 4.73377 6.71935V13.6038C4.73377 14.7778 5.68237 15.7336 6.85756 15.7336H13.7146C14.8898 15.7336 15.8384 14.7778 15.8384 13.6038V6.71935C15.8384 5.54531 14.8898 4.58948 13.7146 4.58948H6.85756Z" fill="var(--primary-color)" />
</svg>
