<svg width="12" height="12" viewBox="0 0 12 12" fill="none" xmlns="http://www.w3.org/2000/svg">
  <path
    d="M6.77123 9.07885L5.64632 10.2026C5.13188 10.7168 4.44854 10.9997 3.72146 10.9997C2.99439 10.9997 2.31019 10.7168 1.79575 10.2026L1.79575 10.2026C0.734612 9.13901 0.734612 7.41756 1.79575 6.354L2.92066 5.22858L2.2133 4.52229L1.08925 5.64515H1.08925C-0.363084 7.09969 -0.363084 9.45517 1.08925 10.9097L1.08925 10.9097C1.78593 11.6098 2.73367 12.0023 3.72147 12C4.71605 12 5.65061 11.6126 6.35368 10.9097L7.47859 9.78599L6.77123 9.07885L6.77123 9.07885ZM5.22877 2.92115L6.35282 1.79744C6.8624 1.28517 7.55587 0.998109 8.27853 1.0003C9.00561 1.0003 9.68981 1.28316 10.2034 1.79744V1.79744C11.2641 2.86119 11.2641 4.58226 10.2034 5.646L9.0802 6.76971L9.7867 7.47685L10.9107 6.354V6.354C12.3631 4.89946 12.3631 2.54398 10.9107 1.08945V1.08945C10.2142 0.389746 9.26681 -0.00251004 8.27939 1.30443e-05C7.29153 -0.00260845 6.34369 0.389995 5.64717 1.09031L4.52312 2.21316L5.22962 2.92116L5.22877 2.92115ZM10.001 10.5C9.86831 10.5005 9.74084 10.4481 9.64694 10.3543L1.6457 2.35286C1.45037 2.15759 1.45037 1.84099 1.6457 1.64572C1.84104 1.45045 2.15773 1.45045 2.35306 1.64572L10.3552 9.64542C10.5507 9.84021 10.5513 10.1566 10.3565 10.3521C10.2626 10.4463 10.135 10.4992 10.0019 10.4991L10.001 10.5Z"
    fill="white" />
</svg>