<svg width="16" height="16" viewBox="0 0 16 16" fill="none" xmlns="http://www.w3.org/2000/svg">
  <rect width="16" height="16" rx="7.99999" fill="#FCF0F0" />
  <path fill-rule="evenodd" clip-rule="evenodd" d="M5.42518 3.57531C5.19041 3.34078 4.80977 3.34078 4.575 3.57531C4.34023 3.80983 4.34023 4.19007 4.575 4.42459L7.64992 7.49628L4.77716 10.366C4.54239 10.6005 4.54239 10.9808 4.77716 11.2153C5.01193 11.4498 5.39257 11.4498 5.62734 11.2153L8.50009 8.34556L11.3728 11.2153C11.6076 11.4498 11.9882 11.4498 12.223 11.2153C12.4578 10.9808 12.4578 10.6005 12.223 10.366L9.35027 7.49628L12.4252 4.42459C12.6599 4.19007 12.6599 3.80983 12.4252 3.57531C12.1904 3.34078 11.8098 3.34078 11.575 3.57531L8.50009 6.64699L5.42518 3.57531Z" fill="#F83F3F" />
</svg>
