<svg width="16" height="16" viewBox="0 0 16 16" fill="none" xmlns="http://www.w3.org/2000/svg">
  <rect width="16" height="16" rx="8" fill="#FCF0F0" />
  <path fill-rule="evenodd" clip-rule="evenodd" d="M5.02572 4.17605C4.79107 3.9414 4.41063 3.9414 4.17599 4.17605C3.94134 4.41069 3.94134 4.79113 4.17599 5.02578L7.15053 8.00033L4.17696 10.9739C3.94232 11.2085 3.94232 11.589 4.17696 11.8236C4.41161 12.0583 4.79205 12.0583 5.02669 11.8236L8.00026 8.85006L10.9738 11.8236C11.2085 12.0583 11.5889 12.0583 11.8236 11.8236C12.0582 11.589 12.0582 11.2085 11.8236 10.9739L8.85 8.00033L11.8245 5.02578C12.0592 4.79113 12.0592 4.41069 11.8245 4.17605C11.5899 3.9414 11.2095 3.9414 10.9748 4.17605L8.00026 7.15059L5.02572 4.17605Z" fill="#F83F3F" />
</svg>
