<svg width="12" height="12" viewBox="0 0 12 12" fill="none" xmlns="http://www.w3.org/2000/svg">
  <path fill-rule="evenodd" clip-rule="evenodd" d="M11.43 0.33877C11.2444 0.123335 10.9759 -0.000198181 10.6937 2.38659e-07H1.72668C1.1874 -0.000128659 0.750127 0.442782 0.75 0.989268C0.75 1.25076 0.852023 1.50165 1.03394 1.6871L4.06908 4.7826C4.08946 4.80312 4.10097 4.831 4.10109 4.86011V9.92142C4.10109 10.2683 4.2801 10.5899 4.57304 10.7691L6.35451 11.8575C6.81623 12.1399 7.4164 11.9895 7.69502 11.5216C7.78698 11.3672 7.83553 11.1902 7.83545 11.0099V4.88375C7.83549 4.85217 7.84892 4.82214 7.87233 4.80129L11.3366 1.73493C11.7428 1.37554 11.7846 0.750462 11.43 0.33877ZM11.5915 9.78507C11.5915 9.54218 11.3972 9.34529 11.1575 9.34529H8.98766C8.74798 9.34529 8.55368 9.54218 8.55368 9.78507C8.55368 10.0279 8.74798 10.2248 8.98766 10.2248H11.1575C11.3972 10.2248 11.5915 10.0279 11.5915 9.78507ZM11.6859 8.1359C11.6859 7.89302 11.4916 7.69612 11.2519 7.69612H9.08205C8.84237 7.69612 8.64807 7.89302 8.64807 8.1359C8.64807 8.37878 8.84237 8.57568 9.08205 8.57568H11.2519C11.4916 8.57568 11.6859 8.37878 11.6859 8.1359ZM11.7065 6.48674C11.7065 6.24385 11.5122 6.04696 11.2725 6.04696H9.10266C8.86298 6.04696 8.66868 6.24385 8.66868 6.48674C8.66868 6.72962 8.86298 6.92652 9.10266 6.92652H11.2725C11.5122 6.92652 11.7065 6.72962 11.7065 6.48674Z" fill="currentColor" />
</svg>
