<svg width="20" height="20" viewBox="0 0 20 20" fill="none" xmlns="http://www.w3.org/2000/svg">
  <path fill-rule="evenodd" clip-rule="evenodd"
    d="M6.07129 2.3C6.07129 1.7201 6.54139 1.25 7.12129 1.25H18.9498C19.5297 1.25 19.9998 1.7201 19.9998 2.3C19.9998 2.87989 19.5297 3.34999 18.9498 3.34999H7.12129C6.54139 3.34999 6.07129 2.87989 6.07129 2.3ZM0 10.0002C0 9.42029 0.4701 8.9502 1.05 8.9502H18.9499C19.5298 8.9502 19.9999 9.42029 19.9999 10.0002C19.9999 10.5801 19.5298 11.0502 18.9499 11.0502H1.05C0.4701 11.0502 0 10.5801 0 10.0002ZM9.97871 16.6504C9.39881 16.6504 8.92871 17.1205 8.92871 17.7004C8.92871 18.2803 9.39881 18.7504 9.97871 18.7504H18.9501C19.53 18.7504 20.0001 18.2803 20.0001 17.7004C20.0001 17.1205 19.53 16.6504 18.9501 16.6504H9.97871Z"
    fill="currentColor" />
</svg>