<svg viewBox="0 0 168 168" fill="none" xmlns="http://www.w3.org/2000/svg">
  <path opacity="0.1"
    d="M81.8786 3.53553C83.0502 2.36396 84.9497 2.36396 86.1212 3.53553L164.464 81.8785C165.636 83.0501 165.636 84.9496 164.464 86.1212L86.1212 164.464C84.9497 165.636 83.0502 165.636 81.8786 164.464L3.53553 86.1211C2.36396 84.9496 2.36396 83.0501 3.53554 81.8785L81.8786 3.53553Z"
    fill="white" stroke="#ADADB0" stroke-width="2" />
  <path
    d="M62.114 76.0994L70.5153 88.8117V75.9817C70.5153 75.1479 70.6919 74.5251 71.045 74.1131C71.4079 73.6913 71.8935 73.4804 72.5016 73.4804C73.1294 73.4804 73.6247 73.6913 73.9877 74.1131C74.3506 74.5251 74.5321 75.1479 74.5321 75.9817V92.9461C74.5321 94.8392 73.7473 95.7858 72.1779 95.7858C71.7856 95.7858 71.4325 95.7269 71.1186 95.6092C70.8047 95.5013 70.5104 95.3248 70.2358 95.0796C69.9611 94.8343 69.7061 94.5499 69.4707 94.2262C69.2353 93.8927 68.9999 93.5543 68.7644 93.211L60.5691 80.6458V93.2845C60.5691 94.1085 60.3779 94.7313 59.9953 95.1531C59.6128 95.5749 59.1223 95.7858 58.524 95.7858C57.906 95.7858 57.4107 95.5749 57.0379 95.1531C56.6652 94.7215 56.4788 94.0987 56.4788 93.2845V76.6438C56.4788 75.9376 56.5573 75.3834 56.7142 74.9812C56.9006 74.5398 57.2096 74.1818 57.6412 73.9071C58.0728 73.6227 58.5387 73.4804 59.039 73.4804C59.4313 73.4804 59.7648 73.5442 60.0395 73.6717C60.3239 73.7992 60.5691 73.9709 60.7751 74.1867C60.9909 74.4025 61.2067 74.682 61.4225 75.0253C61.6481 75.3686 61.8786 75.7267 62.114 76.0994ZM92.2027 77.2176H83.5955V82.7351H90.7903C91.4573 82.7351 91.9526 82.8871 92.2763 83.1912C92.6098 83.4855 92.7766 83.8827 92.7766 84.383C92.7766 84.8832 92.6098 85.2805 92.2763 85.5748C91.9428 85.869 91.4475 86.0162 90.7903 86.0162H83.5955V93.1227C83.5955 94.0251 83.3895 94.697 82.9775 95.1384C82.5753 95.57 82.0555 95.7858 81.4179 95.7858C80.7705 95.7858 80.2408 95.5651 79.8288 95.1237C79.4267 94.6823 79.2256 94.0153 79.2256 93.1227V76.5261C79.2256 75.8983 79.3188 75.3883 79.5052 74.9959C79.6915 74.5937 79.9809 74.3044 80.3732 74.1278C80.7754 73.9415 81.2855 73.8483 81.9034 73.8483H92.2027C92.8992 73.8483 93.4141 74.0052 93.7476 74.3191C94.0909 74.6232 94.2626 75.0253 94.2626 75.5256C94.2626 76.0356 94.0909 76.4476 93.7476 76.7615C93.4141 77.0656 92.8992 77.2176 92.2027 77.2176ZM111.536 77.453H106.769V93.1227C106.769 94.0251 106.568 94.697 106.166 95.1384C105.763 95.57 105.244 95.7858 104.606 95.7858C103.959 95.7858 103.429 95.5651 103.017 95.1237C102.615 94.6823 102.414 94.0153 102.414 93.1227V77.453H97.6467C96.9012 77.453 96.347 77.2912 95.9841 76.9675C95.6211 76.634 95.4397 76.1975 95.4397 75.658C95.4397 75.0989 95.626 74.6575 95.9988 74.3338C96.3813 74.0101 96.9306 73.8483 97.6467 73.8483H111.536C112.291 73.8483 112.85 74.015 113.213 74.3485C113.586 74.682 113.772 75.1185 113.772 75.658C113.772 76.1975 113.586 76.634 113.213 76.9675C112.841 77.2912 112.281 77.453 111.536 77.453Z"
    fill="#BBB6D6" />
</svg>