<svg width="80" height="80" viewBox="0 0 80 80" fill="none" xmlns="http://www.w3.org/2000/svg">
  <circle opacity="0.8" cx="36.6667" cy="36.6667" r="36.6667" fill="currentColor" />
  <circle cx="43.3334" cy="43.3334" r="36.6667" fill="#D1DEFF" />
  <mask id="mask0_109_1784" style="mask-type:alpha" maskUnits="userSpaceOnUse" x="6" y="6" width="74" height="74">
    <circle cx="43.3329" cy="43.3332" r="36.6667" fill="white" />
  </mask>
  <g mask="url(#mask0_109_1784)">
    <g opacity="0.5" filter="url(#filter0_f_109_1784)">
      <circle cx="29.1662" cy="26.6664" r="44.1667" fill="currentColor" />
    </g>
  </g>
  <g filter="url(#filter1_d_109_1784)">
    <path d="M55.873 31.6612H30.8132C29.8192 31.6634 28.9087 32.2163 28.4503 33.0962L28.3283 33.3671L25.6908 40.1537H36.4295L36.4261 40.1872C36.8976 40.0539 37.3882 40.3272 37.5218 40.7975C37.5223 40.7993 37.5228 40.8012 37.5233 40.803C37.5456 40.8818 37.5569 40.9646 37.5569 41.0468C37.5569 44.2557 40.1441 46.8571 43.3347 46.8571C46.5268 46.8571 49.1135 44.2562 49.1135 41.0468V41.0468C49.1117 40.5753 49.4783 40.1839 49.95 40.1537H61.0345L58.351 33.3538V33.3538C57.9909 32.4354 57.1515 31.7906 56.1693 31.678L55.873 31.6612H55.8745H55.873H55.873ZM35.8285 41.9404H25.1125V54.4536C25.1125 55.8279 26.1446 56.9806 27.5046 57.122L27.7777 57.1353H58.8898C60.2567 57.1353 61.4029 56.0959 61.5436 54.7294L61.555 54.4536V41.9404H50.8404C50.352 46.1079 46.5965 49.0881 42.4523 48.597C38.9797 48.1857 36.2409 45.4325 35.832 41.9404H35.8286H35.8285ZM55.8715 29.8746C57.6937 29.8746 59.3298 30.9933 60.0039 32.6942L63.3333 41.1326V54.4541C63.3333 56.922 61.3441 58.9225 58.8898 58.9225H27.7777C25.3234 58.9225 23.3333 56.922 23.3333 54.4545V41.3089L26.673 32.7173C27.3392 31.0021 28.9831 29.8735 30.8142 29.874H55.871L55.8715 29.8746Z" fill="white" />
    <path d="M55.873 31.6612H30.8132C29.8192 31.6634 28.9087 32.2163 28.4503 33.0962L28.3283 33.3671L25.6908 40.1537H36.4295L36.4261 40.1872C36.8976 40.0539 37.3882 40.3272 37.5218 40.7975C37.5223 40.7993 37.5228 40.8012 37.5233 40.803C37.5456 40.8818 37.5569 40.9646 37.5569 41.0468C37.5569 44.2557 40.1441 46.8571 43.3347 46.8571C46.5268 46.8571 49.1135 44.2562 49.1135 41.0468V41.0468C49.1117 40.5753 49.4783 40.1839 49.95 40.1537H61.0345L58.351 33.3538V33.3538C57.9909 32.4354 57.1515 31.7906 56.1693 31.678L55.873 31.6612H55.8745H55.873H55.873ZM35.8285 41.9404H25.1125V54.4536C25.1125 55.8279 26.1446 56.9806 27.5046 57.122L27.7777 57.1353H58.8898C60.2567 57.1353 61.4029 56.0959 61.5436 54.7294L61.555 54.4536V41.9404H50.8404C50.352 46.1079 46.5965 49.0881 42.4523 48.597C38.9797 48.1857 36.2409 45.4325 35.832 41.9404H35.8286H35.8285ZM55.8715 29.8746C57.6937 29.8746 59.3298 30.9933 60.0039 32.6942L63.3333 41.1326V54.4541C63.3333 56.922 61.3441 58.9225 58.8898 58.9225H27.7777C25.3234 58.9225 23.3333 56.922 23.3333 54.4545V41.3089L26.673 32.7173C27.3392 31.0021 28.9831 29.8735 30.8142 29.874H55.871L55.8715 29.8746Z" stroke="white" stroke-width="1.66667" stroke-linecap="round" stroke-linejoin="round" />
  </g>
  <defs>
    <filter id="filter0_f_109_1784" x="-34.3428" y="-36.8426" width="127.018" height="127.018" filterUnits="userSpaceOnUse" color-interpolation-filters="sRGB">
      <feFlood flood-opacity="0" result="BackgroundImageFix" />
      <feBlend mode="normal" in="SourceGraphic" in2="BackgroundImageFix" result="shape" />
      <feGaussianBlur stdDeviation="9.67118" result="effect1_foregroundBlur_109_1784" />
    </filter>
    <filter id="filter1_d_109_1784" x="19.1667" y="27.3741" width="48.3332" height="37.3818" filterUnits="userSpaceOnUse" color-interpolation-filters="sRGB">
      <feFlood flood-opacity="0" result="BackgroundImageFix" />
      <feColorMatrix in="SourceAlpha" type="matrix" values="0 0 0 0 0 0 0 0 0 0 0 0 0 0 0 0 0 0 127 0" result="hardAlpha" />
      <feOffset dy="1.66667" />
      <feGaussianBlur stdDeviation="1.66667" />
      <feComposite in2="hardAlpha" operator="out" />
      <feColorMatrix type="matrix" values="0 0 0 0 0 0 0 0 0 0 0 0 0 0 0 0 0 0 0.15 0" />
      <feBlend mode="normal" in2="BackgroundImageFix" result="effect1_dropShadow_109_1784" />
      <feBlend mode="normal" in="SourceGraphic" in2="effect1_dropShadow_109_1784" result="shape" />
    </filter>
  </defs>
</svg>
