<svg width="16" height="16" viewBox="0 0 16 16" fill="none" xmlns="http://www.w3.org/2000/svg">
  <path d="M5.15315 0C5.37207 0 5.54954 0.177486 5.54954 0.396409V1.1892C5.54954 1.40813 5.37207 1.5856 5.15315 1.5856H3.96396C2.45487 1.5856 1.62402 2.38236 1.58676 3.85972L1.58558 3.96397V12.2883C1.58558 13.6717 2.24795 14.2445 3.85297 14.2695L3.96396 14.2703H11.8919C13.6341 14.2703 14.2453 13.6372 14.2695 11.9958L14.2703 11.8919V10.4942C14.2703 10.2753 14.4478 10.0978 14.6667 10.0978H15.4595C15.6784 10.0978 15.8559 10.2753 15.8559 10.4942V11.8919C15.8559 14.4118 14.6239 15.8087 12.0251 15.8547L11.8919 15.8559H3.96396C1.50828 15.8559 0.0507264 14.6984 0.00118919 12.4096L0 12.2883V3.96396C0 1.58519 1.49243 0.0527146 3.84188 0.00118919L3.96397 0H5.15316H5.15315ZM15.0631 1.27393e-05C15.4779 -0.000118498 15.8228 0.319637 15.8539 0.733348L15.8559 0.792807V5.94596C15.8559 6.16488 15.6784 6.34236 15.4595 6.34236H14.6667C14.4477 6.34236 14.2703 6.16488 14.2703 5.94596V2.7066L9.4822 7.49508C9.3274 7.64983 9.07648 7.64983 8.92169 7.49508L8.36119 6.93418C8.20644 6.77939 8.20644 6.52847 8.36119 6.37368L13.1485 1.58561H9.90992C9.691 1.58561 9.51353 1.40813 9.51353 1.18921V1.18921V0.396416V0.396416C9.51353 0.177492 9.691 1.27393e-05 9.90992 1.27393e-05H15.0631H15.0631Z" fill="var(--primary-color)" />
</svg>
