<svg width="16" height="16" viewBox="0 0 16 16" fill="none" xmlns="http://www.w3.org/2000/svg">
  <path
    d="M6.17833 0.222673V0.217285H1.85694C0.9541 0.217285 0.222909 0.94354 0.217757 1.84145H0.217305V5.92343C0.217305 5.97197 0.227137 6.01749 0.241669 6.06109C0.37299 6.83285 1.04462 7.42117 1.85692 7.42117H6.17833V7.41651C6.94283 7.36867 7.56423 6.79977 7.68853 6.06109C7.70354 6.01749 7.71388 5.97197 7.71388 5.92343V1.84145H7.71337C7.70916 0.978464 7.03191 0.276161 6.17833 0.222673ZM6.85092 5.70205C6.85092 6.17691 6.46439 6.56151 5.9879 6.56151H1.94274C1.46627 6.56151 1.08027 6.17691 1.08027 5.70205V1.93666C1.08027 1.46178 1.46625 1.07696 1.94274 1.07696H5.98792C6.46439 1.07696 6.85092 1.4618 6.85092 1.93666V5.70205ZM15.5861 1.80161C15.5818 0.95996 14.9211 0.274745 14.0885 0.222437V0.217285H10.3187C9.4379 0.217285 8.72506 0.92596 8.71985 1.80159H8.71939V5.78389C8.71939 5.83125 8.72875 5.87579 8.74378 5.91824C8.87136 6.67124 9.52702 7.24506 10.3187 7.24506H14.0886V7.24061C14.8343 7.19371 15.4402 6.63862 15.5626 5.91824C15.5772 5.87579 15.5866 5.83125 15.5866 5.78389V1.80161H15.5861ZM14.7447 5.56792C14.7447 6.03104 14.3681 6.40648 13.9028 6.40648H10.4031C9.93785 6.40648 9.56076 6.03104 9.56076 5.56792V1.89442C9.56076 1.43128 9.93785 1.05586 10.4031 1.05586H13.9028C14.3681 1.05586 14.7447 1.4313 14.7447 1.89442V5.56794V5.56792ZM6.01792 8.58148V8.57637H1.81282C0.934396 8.57637 0.222457 9.28318 0.217737 10.1569H0.217285V14.1287C0.217285 14.1763 0.226665 14.2209 0.241178 14.2628C0.36829 15.0136 1.02255 15.5865 1.81282 15.5865H6.01794V15.5819C6.76174 15.5357 7.36629 14.9815 7.48776 14.2628C7.50274 14.2209 7.51216 14.1763 7.51216 14.1287V10.1569H7.5112C7.50697 9.31736 6.84856 8.63358 6.01794 8.58148H6.01792ZM6.67266 13.9136C6.67266 14.3756 6.29649 14.7499 5.83313 14.7499H2.03137H1.89627C1.43289 14.7499 1.05679 14.3756 1.05679 13.9136V10.2491C1.05679 9.78754 1.43289 9.41281 1.89627 9.41281H5.83313C6.29651 9.41281 6.67266 9.78754 6.67266 10.2491V13.9136V13.9136ZM12.025 12.7746C11.735 12.7746 11.5005 13.001 11.5005 13.28V14.2907C11.5005 14.5705 11.735 14.7965 12.0249 14.7965C12.3147 14.7965 12.5493 14.5705 12.5493 14.2907V13.28C12.5493 13.001 12.3148 12.7746 12.0249 12.7746H12.025ZM14.2593 12.2688C13.9694 12.2688 13.7349 12.4949 13.7349 12.7742V14.2907C13.7349 14.5702 13.9694 14.7961 14.2593 14.7961C14.5496 14.7961 14.7841 14.5702 14.7841 14.2907V12.7742C14.7841 12.4949 14.5496 12.2688 14.2593 12.2688ZM14.2593 9.23602C13.9694 9.23602 13.7349 9.46228 13.7349 9.74186V10.7525C13.7349 11.0316 13.9694 11.2579 14.2593 11.2579C14.5496 11.2579 14.7841 11.0316 14.7841 10.7525V9.74186C14.7841 9.4623 14.5496 9.23602 14.2593 9.23602ZM12.025 9.23647C11.735 9.23647 11.5005 9.46278 11.5005 9.74207V11.7642C11.5005 12.0433 11.735 12.2693 12.0249 12.2693C12.3147 12.2693 12.5493 12.0433 12.5493 11.7642V9.74205C12.5493 9.46278 12.3148 9.23647 12.0249 9.23647H12.025ZM9.76148 11.7642C9.47261 11.7642 9.2376 11.9891 9.2376 12.2688V14.2907C9.2376 14.5702 9.47261 14.7961 9.76146 14.7961C10.0523 14.7961 10.2868 14.5702 10.2868 14.2907V12.2689C10.2868 11.9891 10.0523 11.7642 9.76148 11.7642ZM9.76148 9.23602C9.47261 9.23602 9.2376 9.46228 9.2376 9.74186V10.2474C9.2376 10.5267 9.47261 10.7525 9.76146 10.7525C10.0523 10.7525 10.2868 10.5267 10.2868 10.2474V9.74186C10.2868 9.4623 10.0523 9.23602 9.76148 9.23602Z"
    fill="var(--primary-color)" stroke="var(--primary-color)" stroke-width="0.3" />
</svg>