<svg width="24" height="24" viewBox="0 0 24 24" fill="none" xmlns="http://www.w3.org/2000/svg">
  <path
    d="M1.80296 0C0.815624 0 0 0.815624 0 1.76003V22.2365C0 23.2238 0.815624 23.9965 1.76003 23.9965H22.2365C23.2238 23.9965 23.9965 23.1809 23.9965 22.2365V1.76003C24.0394 0.815621 23.2667 0 22.2794 0H1.80296Z"
    fill="#F0FCF1" />
  <path
    d="M16.9465 14.618C17.2899 14.9614 17.848 14.9614 18.1914 14.618C18.3631 14.4463 18.449 14.2317 18.4061 14.017C18.4061 13.8024 18.3202 13.5878 18.1485 13.4161L12.8255 8.09303C12.4821 7.74961 11.924 7.74961 11.5806 8.09303L6.25757 13.4161C6.08585 13.5448 6 13.8024 6 14.017C6 14.2317 6.08585 14.4463 6.25757 14.618C6.60098 14.9614 7.15904 14.9614 7.50246 14.618L11.3659 10.7545V19.34C11.3659 19.8122 11.7523 20.1986 12.2245 20.1986C12.6967 20.1986 13.083 19.8122 13.083 19.34V10.7545L16.9465 14.618Z"
    fill="#2BD56F" />
  <path
    d="M6.90148 6.51739H17.5904C18.0626 6.51739 18.449 6.13104 18.449 5.65884C18.449 5.18664 18.0626 4.80029 17.5904 4.80029H6.90148C6.42927 4.80029 6.04293 5.18664 6.04293 5.65884C6.04293 6.13104 6.42927 6.51739 6.90148 6.51739Z"
    fill="#2BD56F" />
</svg>