<svg width="14" height="14" viewBox="0 0 14 14" fill="none" xmlns="http://www.w3.org/2000/svg">
  <path fill-rule="evenodd" clip-rule="evenodd"
    d="M7 14C10.866 14 14 10.866 14 7C14 3.13401 10.866 0 7 0C3.13401 0 0 3.13401 0 7C0 10.866 3.13401 14 7 14ZM7.77707 13.0758H6.46107V11.8158C4.99107 11.6898 3.91307 11.1298 3.14307 10.3598L4.23507 8.80583C4.75307 9.35183 5.52307 9.84183 6.46107 10.0098V7.83983C5.01907 7.48983 3.45107 6.94383 3.45107 5.03983C3.45107 3.62583 4.57107 2.42183 6.46107 2.22583V0.923828H7.77707V2.25383C8.91107 2.37983 9.87707 2.79983 10.6331 3.49983L9.52707 4.98383C9.02307 4.52183 8.40707 4.22783 7.77707 4.07383V6.00583C9.23307 6.36983 10.8571 6.92983 10.8571 8.84783C10.8571 10.4018 9.83507 11.6058 7.77707 11.8158V13.0758ZM7.77707 10.0378C8.49107 9.89783 8.82707 9.49183 8.82707 9.04383C8.82707 8.58183 8.39307 8.35783 7.77707 8.16183V10.0378ZM6.46107 3.98983C5.84507 4.07383 5.49507 4.40983 5.49507 4.88583C5.49507 5.29183 5.88707 5.50183 6.46107 5.68383V3.98983Z"
    fill="currentColor" />
</svg>